<?xml version="1.0" encoding="utf-8"?>
<!-- Generator: Adobe Illustrator 14.0.0, SVG Export Plug-In . SVG Version: 6.00 Build 43363)  -->
<!DOCTYPE svg PUBLIC "-//W3C//DTD SVG 1.1//EN" "http://www.w3.org/Graphics/SVG/1.1/DTD/svg11.dtd">
<svg version="1.1" id="udem" xmlns="http://www.w3.org/2000/svg" xmlns:xlink="http://www.w3.org/1999/xlink" x="0px" y="0px"
	 width="152.361px" height="60px" viewBox="0 0 152.361 60" enable-background="new 0 0 152.361 60" xml:space="preserve">
<g>
	<g id="UdeM_1_">
		<path fill="#164FB5" d="M129.286,28.034v8.558l0.021,0.325l-0.327-0.022h-4.152l-0.329,0.022l0.02-0.325v-7.807
			c0-2.274-1.309-3.36-2.927-3.36c-1.614,0-2.925,1.085-2.925,3.36v7.807l0.02,0.325l-0.327-0.022h-4.154l-0.326,0.022l0.019-0.325
			v-7.807c0-4.249,3.444-7.695,7.694-7.695c1.811,0,3.469,0.63,4.784,1.674l0.094,0.282l0.09-0.272
			c0.136-0.146,0.275-0.289,0.419-0.424l0.279-0.064l-0.258-0.12c-1.136-1.264-1.831-2.934-1.831-4.766V0.326L125.147,0l0.33,0.021
			h4.152L129.955,0l-0.019,0.326V17.4c0,1.847,1.067,2.733,2.382,2.733c1.316,0,2.379-0.886,2.379-2.733V0.326L134.677,0
			l0.328,0.021h4.154L139.486,0l-0.019,0.326V17.4c0,1.833-0.694,3.502-1.832,4.766l-0.261,0.12l0.284,0.064
			c0.144,0.135,0.281,0.277,0.421,0.424l0.089,0.272l0.093-0.282c1.313-1.044,2.974-1.674,4.781-1.674
			c4.25,0,7.695,3.446,7.695,7.695v7.807l0.02,0.325l-0.33-0.022h-4.149l-0.33,0.022l0.021-0.325v-7.807
			c0-2.274-1.312-3.36-2.926-3.36c-1.615,0-2.925,1.085-2.925,3.36v7.807l0.019,0.325l-0.329-0.022h-4.152l-0.325,0.022l0.018-0.325
			v-8.558c0-2.356-1.355-3.485-3.029-3.485C130.643,24.548,129.286,25.677,129.286,28.034"/>
		<path d="M35.7,55.936c-0.609,0.476-1.358,0.891-2.501,0.891c-1.502,0-2.792-1.091-2.792-4.055c0-3.052,1.054-4.464,2.767-4.464
			c1.158,0,1.972,0.41,2.525,1.033V55.936z M35.7,57.966h4.395v-0.459l-1.628-0.39V42.164h-4.514v0.512l1.747,0.486v5.051
			c-0.772-0.645-1.928-1.169-3.47-1.169c-2.743,0-4.767,2.404-4.767,5.754c0,3.424,1.851,5.412,4.79,5.412
			c1.429,0,2.621-0.549,3.447-1.309V57.966"/>
		<polygon points="77.016,42.164 77.016,42.651 75.365,43.086 75.365,57.044 77.016,57.483 77.016,57.966 70.155,57.966 
			70.155,57.457 72.357,57.044 72.357,45.928 67.224,57.966 66.035,57.966 60.995,45.877 60.995,57.044 63.118,57.407 
			63.118,57.966 58.154,57.966 58.154,57.483 59.563,57.067 59.563,43.063 58.154,42.651 58.154,42.164 62.575,42.164 
			67.488,54.261 72.533,42.164 		"/>
		<path d="M83.911,47.822c1.894,0,2.89,2.109,2.89,4.78c0,2.644-0.996,4.829-2.89,4.829c-1.866,0-2.887-2.186-2.887-4.829
			C81.024,49.956,82.044,47.822,83.911,47.822 M83.911,47.041c-3.105,0-5.896,2.163-5.896,5.586c0,3.323,2.815,5.583,5.896,5.583
			c3.108,0,5.927-2.26,5.927-5.583C89.837,49.204,87.019,47.041,83.911,47.041"/>
		<path d="M141.071,56.194c-0.558,0.362-1.046,0.729-1.919,0.729c-1.409,0.023-1.797-0.852-1.797-1.869
			c0-1.045,0.703-1.748,1.992-1.963l1.724-0.197V56.194z M141.071,50.345v1.817l-2.454,0.127c-2.379,0.07-3.859,1.356-3.859,3.129
			c0,1.796,1.334,2.792,3.108,2.792c1.456,0,2.501-0.703,3.205-1.215v0.971h4.021v-0.459l-1.304-0.39v-7.232
			c0-1.579-1.044-2.844-3.398-2.844c-2.404,0-3.909,0.683-4.76,1.043v2.504h1.201l0.398-2.077c0.278-0.117,1.023-0.375,2.212-0.276
			C140.873,48.35,141.047,49.351,141.071,50.345"/>
		<polygon points="152.361,57.507 152.361,57.966 146.341,57.966 146.341,57.507 147.967,57.117 147.967,43.088 146.341,42.678 
			146.341,42.164 150.734,42.164 150.734,57.117 		"/>
		<path d="M13.2,22.064l-2.354-0.462v-0.509h5.463v0.484l-1.673,0.487v9.556c0,3.981-2.168,5.59-6.613,5.59
			c-4.55,0-6.398-1.741-6.398-5.34v-9.88L0,21.577v-0.484h6.992v0.536l-2.381,0.41v9.686c0,2.934,0.999,4.374,4.054,4.374
			c3.314,0,4.536-1.496,4.536-4.642V22.064"/>
		<path d="M22.606,36.434v0.461h-5.899v-0.461l1.601-0.39v-9.03l-1.454-0.413v-0.507h4.221v1.649
			c0.487-0.41,2.017-1.771,3.982-1.771c2.04,0,3.084,1.143,3.084,3.133v6.917l1.555,0.389v0.484h-5.732V36.41l1.431-0.366v-6.625
			c0-1.044-0.315-1.966-1.625-1.966c-1.164,0-2.354,0.826-2.695,1.045v7.546L22.606,36.434"/>
		<polygon points="35.051,36.044 36.652,36.436 36.652,36.895 30.657,36.895 30.657,36.436 32.284,36.044 32.284,27.014 
			30.824,26.603 30.824,26.094 35.051,26.094 		"/>
		<path d="M35.196,22.379c0,0.824-0.73,1.502-1.601,1.502c-0.85,0-1.604-0.679-1.604-1.502c0-0.826,0.754-1.529,1.604-1.529
			C34.466,20.85,35.196,21.553,35.196,22.379"/>
		<polygon points="82.73,36.044 84.332,36.436 84.332,36.895 78.336,36.895 78.336,36.436 79.964,36.044 79.964,27.014 
			78.51,26.603 78.51,26.094 82.73,26.094 		"/>
		<path d="M82.875,22.379c0,0.824-0.727,1.502-1.601,1.502c-0.85,0-1.601-0.679-1.601-1.502c0-0.826,0.751-1.529,1.601-1.529
			C82.148,20.85,82.875,21.553,82.875,22.379"/>
		<polygon points="37.528,26.846 36.75,26.531 36.75,26.094 41.994,26.094 41.994,26.531 40.319,26.944 42.727,33.521 
			45.117,26.896 43.658,26.531 43.658,26.094 47.25,26.094 47.25,26.531 46.377,26.944 42.267,37.065 41.369,37.065 		"/>
		<path d="M54.866,29.979h-4.298c0.243-1.846,0.973-3.204,2.259-3.204C54.281,26.775,54.768,28.474,54.866,29.979 M50.448,30.829
			h7.138c-0.078-2.988-1.63-4.857-4.759-4.857c-3.083,0-5.367,2.672-5.367,5.584c0,3.376,2.21,5.583,5.391,5.583
			c2.719,0,4.126-1.069,4.951-1.675l-0.458-0.729c-0.631,0.39-1.896,1.24-3.984,1.12C51.271,35.71,50.23,33.521,50.448,30.829"/>
		<path d="M76.166,26.529l-0.24,2.65H74.93l-0.246-1.801c-0.362-0.194-0.849-0.604-1.917-0.604c-0.875,0-1.553,0.461-1.553,1.407
			c0,1.119,1.239,1.553,2.476,2.113c1.191,0.511,3.13,1.237,3.13,3.155c0,2.187-1.795,3.69-3.955,3.69
			c-1.992,0-3.156-0.459-3.497-0.58l-0.195-2.94l1.02-0.098l0.584,1.992c0.291,0.22,1.092,0.848,2.064,0.825
			c1.385,0,2.04-0.728,2.04-1.772c0-1.237-1.725-1.772-2.865-2.305c-1.067-0.513-2.719-0.974-2.719-3.183
			c0-1.816,1.507-3.105,3.544-3.105C74.588,25.972,75.681,26.384,76.166,26.529"/>
		<polygon points="102.727,22.525 101.683,20.973 97.97,23.882 98.575,24.761 		"/>
		<path d="M100.688,29.979h-4.296c0.24-1.846,0.97-3.204,2.257-3.204C100.107,26.775,100.591,28.474,100.688,29.979 M96.27,30.829
			h7.138c-0.075-2.988-1.628-4.857-4.759-4.857c-3.083,0-5.365,2.672-5.365,5.584c0,3.376,2.208,5.583,5.388,5.583
			c2.719,0,4.128-1.069,4.954-1.675l-0.46-0.729c-0.634,0.39-1.894,1.24-3.984,1.12C97.095,35.71,96.052,33.521,96.27,30.829"/>
		<path d="M66.72,25.99c-1.555,0-2.673,1.248-3.305,2.652h-0.051v-2.549H58.97v0.447l1.628,0.475v9.028l-1.628,0.394v0.457h6.75
			V36.36l-2.355-0.386v-6.131c0.644-1.42,1.596-1.994,2.199-1.994c0.454,0,0.624,0.091,0.976,0.394
			c0.123,0.101,0.588,0.235,0.867,0.111c0.527-0.229,0.669-0.615,0.669-1.181C68.076,26.546,67.473,25.99,66.72,25.99"/>
		<path d="M96.825,57.507v0.459h-5.899v-0.459l1.598-0.39v-9.031l-1.452-0.412v-0.509h4.221v1.651
			c0.485-0.416,2.017-1.772,3.982-1.772c2.038,0,3.082,1.142,3.082,3.134v6.916l1.555,0.39v0.482h-5.731v-0.482l1.433-0.366v-6.626
			c0-1.048-0.314-1.966-1.625-1.966c-1.164,0-2.356,0.825-2.695,1.04v7.552L96.825,57.507"/>
		<path d="M121.057,47.061c-1.554,0-2.673,1.25-3.306,2.65h-0.048v-2.546h-4.395v0.445l1.63,0.474v9.033l-1.63,0.39v0.459h6.748
			v-0.534l-2.353-0.388v-6.128c0.644-1.421,1.595-1.992,2.198-1.992c0.453,0,0.621,0.089,0.974,0.388
			c0.128,0.104,0.591,0.237,0.869,0.109c0.528-0.221,0.67-0.61,0.67-1.177C122.413,47.62,121.811,47.061,121.057,47.061"/>
		<path d="M92.438,35.686c-0.405,0.27-0.82,0.469-1.436,0.469c-0.974,0-1.289-0.712-1.289-2.315v-6.798l2.769-0.412v-0.536h-2.769
			v-5.001h-0.902c-0.182,2.863-1.194,4.742-3.751,5.001h-0.422v0.536l2.309,0.412v6.946c0,2.202,0.535,3.151,2.597,3.151
			c1.488,0,2.678-0.56,3.165-1.017L92.438,35.686"/>
		<path d="M112.045,56.756c-0.405,0.272-0.822,0.469-1.436,0.469c-0.977,0-1.289-0.711-1.289-2.311v-6.802l2.771-0.412v-0.535
			h-2.771v-5.001h-0.902c-0.184,2.864-1.195,4.739-3.751,5.001h-0.42V47.7l2.304,0.412v6.944c0,2.203,0.538,3.153,2.599,3.153
			c1.486,0,2.679-0.559,3.166-1.018L112.045,56.756"/>
		<path d="M48.305,51.052h-4.296c0.241-1.848,0.973-3.207,2.256-3.207C47.725,47.845,48.207,49.547,48.305,51.052 M43.887,51.9
			h7.138c-0.073-2.989-1.628-4.856-4.76-4.856c-3.081,0-5.364,2.67-5.364,5.583c0,3.375,2.21,5.583,5.388,5.583
			c2.719,0,4.129-1.064,4.954-1.675l-0.46-0.728c-0.632,0.389-1.896,1.239-3.984,1.113C44.712,56.777,43.669,54.593,43.887,51.9"/>
		<path d="M130.071,51.05h-4.295c0.241-1.846,0.972-3.205,2.255-3.205C129.488,47.845,129.977,49.544,130.071,51.05 M132.109,43.599
			l-1.042-1.555l-3.715,2.912l0.606,0.874L132.109,43.599z M125.653,51.9h7.138c-0.075-2.991-1.628-4.859-4.76-4.859
			c-3.08,0-5.366,2.673-5.366,5.586c0,3.375,2.211,5.583,5.391,5.583c2.719,0,4.126-1.066,4.951-1.677l-0.458-0.729
			c-0.632,0.39-1.895,1.239-3.982,1.118C126.479,56.78,125.436,54.59,125.653,51.9"/>
	</g>
</g>
</svg>
