<?xml version="1.0" encoding="utf-8"?>
<!-- Generator: Adobe Illustrator 14.0.0, SVG Export Plug-In . SVG Version: 6.00 Build 43363)  -->
<!DOCTYPE svg PUBLIC "-//W3C//DTD SVG 1.1//EN" "http://www.w3.org/Graphics/SVG/1.1/DTD/svg11.dtd">
<svg version="1.1" id="studium" xmlns="http://www.w3.org/2000/svg" xmlns:xlink="http://www.w3.org/1999/xlink" x="0px" y="0px"
	 width="158.497px" height="61px" viewBox="0 0 158.497 61" enable-background="new 0 0 158.497 61" xml:space="preserve">
<g>
	<g id="StudiUM_1_">
		<path d="M102.832,47.182V33.269h5.357v13.78c0,3.96,1.986,6.014,5.259,6.014c3.264,0,5.244-1.982,5.244-5.843V33.269h5.359v13.742
			c0,7.377-4.14,10.989-10.676,10.989C106.838,58,102.832,54.35,102.832,47.182"/>
		<polygon points="129.847,28.202 136.645,28.202 144.174,40.31 151.704,28.202 158.497,28.202 158.497,57.692 152.485,57.692 
			152.485,37.894 144.174,50.382 144.012,50.382 135.782,38.018 135.782,57.692 129.847,57.692 		"/>
		<path d="M12.028,57.776c-2.226,0-4.354-0.374-6.384-1.135C3.61,55.892,1.729,54.726,0,53.163l3.05-3.622
			c1.396,1.206,2.812,2.135,4.241,2.778s3.05,0.968,4.859,0.968c1.57,0,2.814-0.329,3.734-0.986c0.917-0.66,1.377-1.54,1.377-2.641
			v-0.081c0-0.521-0.09-0.981-0.267-1.382c-0.184-0.396-0.51-0.774-0.994-1.132c-0.479-0.355-1.139-0.688-1.98-0.989
			c-0.843-0.3-1.935-0.601-3.283-0.905c-1.542-0.357-2.912-0.763-4.11-1.215c-1.199-0.455-2.207-1.004-3.017-1.645
			c-0.813-0.648-1.432-1.441-1.856-2.371c-0.429-0.934-0.643-2.063-0.643-3.379v-0.083c0-1.236,0.245-2.368,0.738-3.402
			c0.486-1.025,1.163-1.904,2.023-2.634c0.855-0.726,1.885-1.295,3.095-1.71c1.206-0.409,2.519-0.614,3.948-0.614
			c2.118,0,4.02,0.31,5.707,0.927c1.692,0.617,3.279,1.515,4.761,2.697L18.66,35.57c-1.313-0.96-2.624-1.694-3.91-2.199
			c-1.292-0.51-2.6-0.763-3.917-0.763c-1.482,0-2.635,0.327-3.458,0.987c-0.824,0.657-1.239,1.468-1.239,2.43v0.081
			c0,0.553,0.098,1.039,0.291,1.463c0.193,0.427,0.541,0.813,1.056,1.153c0.51,0.349,1.21,0.663,2.104,0.968
			c0.898,0.305,2.032,0.619,3.41,0.948c1.516,0.386,2.854,0.811,4.027,1.277c1.167,0.467,2.138,1.036,2.912,1.711
			c0.772,0.67,1.353,1.456,1.751,2.35c0.403,0.886,0.601,1.925,0.601,3.109v0.081c0,1.349-0.25,2.555-0.755,3.624
			c-0.505,1.072-1.206,1.978-2.099,2.719c-0.903,0.741-1.985,1.306-3.241,1.689C14.926,57.585,13.539,57.776,12.028,57.776"/>
		<path d="M26.258,51.695V40.536h-2.695v-4.172h2.695V30.54h4.852v5.824h5.705v4.172H31.11v10.401c0,1.882,0.967,2.649,2.611,2.649
			c1.082,0,2.047-0.243,3.012-0.725v3.97c-1.206,0.687-2.569,1.087-4.38,1.087C28.784,57.919,26.258,56.354,26.258,51.695"/>
		<path d="M41.065,49.849V36.364h4.86v12.043c0,3.288,1.645,5.18,4.535,5.18c2.809,0,4.777-1.968,4.777-5.259V36.364h4.856V57.56
			h-4.856v-3.291C53.87,56.274,51.907,58,48.614,58C43.836,58,41.065,54.788,41.065,49.849"/>
		<path d="M64.319,47.001v-0.079c0-7.029,4.777-11.001,9.834-11.001c3.49,0,5.699,1.764,7.225,3.733V28.252h4.86V57.56h-4.86v-3.534
			C79.81,56.232,77.604,58,74.153,58C69.178,58,64.319,54.025,64.319,47.001 M81.459,47.001v-0.079c0-4.098-2.891-6.783-6.144-6.783
			c-3.331,0-6.1,2.566-6.1,6.783v0.079c0,4.094,2.807,6.786,6.1,6.786C78.568,53.787,81.459,51.052,81.459,47.001"/>
		<rect x="92.167" y="28.252" width="4.856" height="4.614"/>
		<rect x="92.184" y="36.497" width="4.854" height="21.198"/>
	</g>
</g>
</svg>
