<?xml version="1.0" standalone="no"?>
<!DOCTYPE svg PUBLIC "-//W3C//DTD SVG 20010904//EN"
 "http://www.w3.org/TR/2001/REC-SVG-20010904/DTD/svg10.dtd">
<svg version="1.0" xmlns="http://www.w3.org/2000/svg"
 width="700.000000pt" height="700.000000pt" viewBox="0 0 700.000000 700.000000"
 preserveAspectRatio="xMidYMid meet">
<g transform="translate(0.000000,700.000000) scale(0.100000,-0.100000)"
fill="#000000" stroke="none">
<path d="M0 3500 l0 -3500 3500 0 3500 0 0 3500 0 3500 -3500 0 -3500 0 0
-3500z m3865 2920 c255 -30 501 -86 723 -166 279 -100 681 -325 906 -507 l29
-23 -258 -365 c-142 -200 -264 -370 -271 -378 -10 -11 -28 -2 -106 52 -318
222 -651 380 -956 456 -296 74 -634 82 -860 20 -265 -71 -456 -232 -533 -449
-20 -56 -24 -84 -24 -200 1 -101 5 -150 19 -194 55 -184 167 -298 401 -410
160 -77 430 -164 794 -256 887 -224 1328 -423 1606 -722 266 -286 378 -614
362 -1060 -11 -309 -64 -512 -197 -752 -281 -508 -812 -807 -1553 -877 -161
-15 -556 -7 -726 16 -672 87 -1258 336 -1761 746 -52 43 -110 91 -129 107
l-35 29 20 25 c74 93 579 688 584 688 3 0 48 -35 100 -77 382 -311 789 -523
1151 -602 259 -56 623 -70 839 -32 249 43 419 127 557 275 115 122 172 291
159 471 -11 162 -51 266 -139 361 -168 182 -452 302 -1056 450 -596 146 -867
234 -1149 373 -202 99 -332 189 -467 325 -258 260 -375 579 -375 1027 0 434
137 790 420 1091 278 297 728 507 1195 557 55 6 116 13 135 15 62 7 502 -3
595 -14z"/>
</g>
</svg>
