<?xml version="1.0" encoding="utf-8"?>
<!-- Generator: Adobe Illustrator 16.0.0, SVG Export Plug-In . SVG Version: 6.00 Build 0)  -->
<!DOCTYPE svg PUBLIC "-//W3C//DTD SVG 1.1//EN" "http://www.w3.org/Graphics/SVG/1.1/DTD/svg11.dtd">
<svg version="1.1" id="Calque_1" xmlns="http://www.w3.org/2000/svg" xmlns:xlink="http://www.w3.org/1999/xlink" x="0px" y="0px"
	 width="261px" height="70px" viewBox="0 0 261 70" enable-background="new 0 0 261 70" xml:space="preserve">
<radialGradient id="SVGID_1_" cx="138.2432" cy="22.9067" r="123.3349" gradientTransform="matrix(1 0 0 -1 0 71)" gradientUnits="userSpaceOnUse">
	<stop  offset="0" style="stop-color:#FAAF40"/>
	<stop  offset="0.0432" style="stop-color:#F9A538"/>
	<stop  offset="0.1116" style="stop-color:#F89D31"/>
	<stop  offset="0.2269" style="stop-color:#F89A2F"/>
	<stop  offset="0.5276" style="stop-color:#F7922D"/>
	<stop  offset="1" style="stop-color:#F37B28"/>
</radialGradient>
<path fill="url(#SVGID_1_)" d="M62.4,65.2V42.4c0-4.801-2-7.2-5.9-7.2s-5.9,2.399-5.9,7.2v22.8H38.9V42.4c0-4.801-1.9-7.2-5.8-7.2
	s-5.9,2.399-5.9,7.2v22.8H15.6V41.1c0-5,1.7-8.7,5.2-11.3c3-2.3,7.2-3.4,12.3-3.4c5.3,0,9.1,1.3,11.6,4c2.1-2.7,6-4,11.7-4
	c5.2,0,9.3,1.1,12.3,3.4c3.5,2.6,5.2,6.3,5.2,11.3v24.2H62.4V65.2z"/>
<radialGradient id="SVGID_2_" cx="138.2432" cy="22.9072" r="123.3347" gradientTransform="matrix(1 0 0 -1 0 71)" gradientUnits="userSpaceOnUse">
	<stop  offset="0" style="stop-color:#FAAF40"/>
	<stop  offset="0.0432" style="stop-color:#F9A538"/>
	<stop  offset="0.1116" style="stop-color:#F89D31"/>
	<stop  offset="0.2269" style="stop-color:#F89A2F"/>
	<stop  offset="0.5276" style="stop-color:#F7922D"/>
	<stop  offset="1" style="stop-color:#F37B28"/>
</radialGradient>
<path fill="url(#SVGID_2_)" d="M96,66.2c-5.9,0-10.7-1.9-14.6-5.601c-3.8-3.699-5.8-8.5-5.8-14.399c0-5.9,1.9-10.7,5.8-14.4
	c3.8-3.7,8.7-5.6,14.6-5.6s10.8,1.9,14.6,5.6c3.9,3.7,5.8,8.5,5.8,14.4c0,5.899-1.9,10.7-5.8,14.399C106.7,64.3,101.8,66.2,96,66.2z
	 M96,35.5c-2.8,0-5,1.1-6.5,3.2c-1.5,2.1-2.3,4.6-2.3,7.6c0,2.9,0.7,5.4,2.1,7.4c1.6,2.3,3.8,3.399,6.6,3.399c2.8,0,5-1.1,6.6-3.399
	c1.5-2,2.2-4.5,2.2-7.4c0-2.899-0.7-5.399-2.1-7.399C101.1,36.6,98.8,35.5,96,35.5z"/>
<radialGradient id="SVGID_3_" cx="138.2432" cy="22.9072" r="123.3362" gradientTransform="matrix(1 0 0 -1 0 71)" gradientUnits="userSpaceOnUse">
	<stop  offset="0" style="stop-color:#FAAF40"/>
	<stop  offset="0.0432" style="stop-color:#F9A538"/>
	<stop  offset="0.1116" style="stop-color:#F89D31"/>
	<stop  offset="0.2269" style="stop-color:#F89A2F"/>
	<stop  offset="0.5276" style="stop-color:#F7922D"/>
	<stop  offset="1" style="stop-color:#F37B28"/>
</radialGradient>
<path fill="url(#SVGID_3_)" d="M138,66.2c-5.9,0-10.7-1.9-14.6-5.601c-3.8-3.699-5.8-8.5-5.8-14.399c0-5.9,1.9-10.7,5.8-14.4
	c3.8-3.7,8.7-5.6,14.6-5.6s10.8,1.9,14.6,5.6c3.9,3.7,5.801,8.5,5.801,14.4c0,5.899-1.9,10.7-5.801,14.399
	C148.7,64.3,143.8,66.2,138,66.2z M138,35.5c-2.8,0-5,1.1-6.5,3.2c-1.5,2.1-2.3,4.6-2.3,7.6c0,2.9,0.7,5.4,2.1,7.4
	C132.9,56,135.1,57.1,137.9,57.1c2.8,0,5-1.1,6.6-3.399c1.5-2,2.2-4.5,2.2-7.4c0-2.899-0.7-5.399-2.101-7.399
	C143.1,36.6,140.8,35.5,138,35.5z"/>
<radialGradient id="SVGID_4_" cx="138.2441" cy="22.9072" r="123.3332" gradientTransform="matrix(1 0 0 -1 0 71)" gradientUnits="userSpaceOnUse">
	<stop  offset="0" style="stop-color:#FAAF40"/>
	<stop  offset="0.0432" style="stop-color:#F9A538"/>
	<stop  offset="0.1116" style="stop-color:#F89D31"/>
	<stop  offset="0.2269" style="stop-color:#F89A2F"/>
	<stop  offset="0.5276" style="stop-color:#F7922D"/>
	<stop  offset="1" style="stop-color:#F37B28"/>
</radialGradient>
<path fill="url(#SVGID_4_)" d="M189.8,65.1v-3.8c-1,1.4-2.8,2.5-5.3,3.3c-2.2,0.801-4.3,1.101-6.3,1.101c-5.5,0-10-1.9-13.3-5.7
	c-3.4-3.8-5-8.5-5-14.1c0-5.5,1.6-10.2,4.899-13.9s7.7-5.6,13.101-5.6c6.199,0,10.1,1.7,11.899,5V0h11.3v65.1H189.8z M189.8,43.5
	c0-2.1-1-4.1-3-6s-4-2.9-6.1-2.9c-3,0-5.3,1.2-7.101,3.6c-1.5,2.1-2.3,4.8-2.3,7.899c0,3,0.8,5.601,2.3,7.801
	c1.7,2.5,4.101,3.699,7.101,3.699c1.8,0,3.7-0.8,5.899-2.5c2.101-1.699,3.2-3.399,3.2-5.199V43.5L189.8,43.5z"/>
<radialGradient id="SVGID_5_" cx="138.2441" cy="22.9072" r="123.3336" gradientTransform="matrix(1 0 0 -1 0 71)" gradientUnits="userSpaceOnUse">
	<stop  offset="0" style="stop-color:#FAAF40"/>
	<stop  offset="0.0432" style="stop-color:#F9A538"/>
	<stop  offset="0.1116" style="stop-color:#F89D31"/>
	<stop  offset="0.2269" style="stop-color:#F89A2F"/>
	<stop  offset="0.5276" style="stop-color:#F7922D"/>
	<stop  offset="1" style="stop-color:#F37B28"/>
</radialGradient>
<path fill="url(#SVGID_5_)" d="M205.2,65.1V0h11.6v65.1H205.2z"/>
<radialGradient id="SVGID_6_" cx="138.2451" cy="22.9067" r="123.3327" gradientTransform="matrix(1 0 0 -1 0 71)" gradientUnits="userSpaceOnUse">
	<stop  offset="0" style="stop-color:#FAAF40"/>
	<stop  offset="0.0432" style="stop-color:#F9A538"/>
	<stop  offset="0.1116" style="stop-color:#F89D31"/>
	<stop  offset="0.2269" style="stop-color:#F89A2F"/>
	<stop  offset="0.5276" style="stop-color:#F7922D"/>
	<stop  offset="1" style="stop-color:#F37B28"/>
</radialGradient>
<path fill="url(#SVGID_6_)" d="M230.7,49.7c0.5,2.399,1.7,4.399,3.5,6.1c1.899,1.7,3.899,2.601,6.2,2.601c1.6,0,3.3-0.4,5.199-1.2
	c2.301-1,3.4-2.101,3.4-3.4l12.2-0.1c-1.7,4.1-4.7,7.3-8.8,9.5c-3.9,2.1-8.101,3.2-12.801,3.2c-5.899,0-10.899-1.9-14.8-5.5
	c-3.899-3.7-5.899-8.5-5.899-14.5c0-6.2,2-11,5.899-14.7c3.9-3.6,9-5.4,15.2-5.4c6.8,0,12.1,2.2,15.9,6.7c3.5,4.1,5.3,9.7,5.3,16.7
	H230.7z M249.7,42.5c-0.5-2.5-1.5-4.5-3.101-6.1c-1.8-1.7-3.899-2.601-6.199-2.601c-2.4,0-4.4,0.8-6.101,2.5
	c-1.6,1.7-2.7,3.7-3.3,6.2H249.7z"/>
<path fill="#58595B" d="M16.7,32.2c-0.4,2-0.8,4-1.2,6c11,3.7,21.4,0.1,26.9-9.5C34.3,23.1,26.8,28.8,16.7,32.2"/>
<linearGradient id="SVGID_7_" gradientUnits="userSpaceOnUse" x1="15.6001" y1="39.1396" x2="41.8608" y2="39.1396" gradientTransform="matrix(1 0 0 -1 0 71)">
	<stop  offset="0" style="stop-color:#929497"/>
	<stop  offset="0.1245" style="stop-color:#757578"/>
	<stop  offset="0.2792" style="stop-color:#575658"/>
	<stop  offset="0.4403" style="stop-color:#403E3F"/>
	<stop  offset="0.6085" style="stop-color:#302D2E"/>
	<stop  offset="0.7884" style="stop-color:#262223"/>
	<stop  offset="1" style="stop-color:#231F20"/>
</linearGradient>
<path fill="url(#SVGID_7_)" d="M16.7,30.7c-0.4,2.3-0.7,4.5-1.1,6.8c10.5,3.6,20.8,0.5,26.3-8.9C34.9,20.5,27.1,27.2,16.7,30.7"/>
<linearGradient id="SVGID_8_" gradientUnits="userSpaceOnUse" x1="20.6367" y1="47.9014" x2="31.5397" y2="32.3303" gradientTransform="matrix(1 0 0 -1 0 71)">
	<stop  offset="0" style="stop-color:#231F20"/>
	<stop  offset="1" style="stop-color:#231F20;stop-opacity:0"/>
</linearGradient>
<path fill="url(#SVGID_8_)" d="M29.2,33.4c-4.8-1-10,1.5-13.6,4.1c-2.3-16.8,8.1-16.4,21.7-12.2c-0.9,4.1-2.4,9.6-5,12.9
	C32.2,36,31.2,34.5,29.2,33.4"/>
<linearGradient id="SVGID_9_" gradientUnits="userSpaceOnUse" x1="1.2002" y1="47.4609" x2="49.2002" y2="47.4609" gradientTransform="matrix(1 0 0 -1 0 71)">
	<stop  offset="0" style="stop-color:#929497"/>
	<stop  offset="0.1245" style="stop-color:#757578"/>
	<stop  offset="0.2792" style="stop-color:#575658"/>
	<stop  offset="0.4403" style="stop-color:#403E3F"/>
	<stop  offset="0.6085" style="stop-color:#302D2E"/>
	<stop  offset="0.7884" style="stop-color:#262223"/>
	<stop  offset="1" style="stop-color:#231F20"/>
</linearGradient>
<path fill="url(#SVGID_9_)" d="M1.2,30.7c17.6-10.6,27.5-12.6,48-14.7C25.4,34.8,24.8,30.7,1.2,30.7"/>
<line fill="none" stroke="#4A4A4C" stroke-width="0.5" x1="49.2" y1="16.1" x2="30.3" y2="29.8"/>
<path opacity="0.23" fill="#231F20" enable-background="new    " d="M26.7,23.4C26.9,25.6,26.4,21.3,26.7,23.4"/>
<line fill="none" stroke="#A8ABAD" stroke-width="0.5" x1="1.2" y1="30.7" x2="30.3" y2="29.8"/>
<path display="none" fill="none" stroke="#F16922" stroke-width="0.5" d="M24.9,23.6C12.9,26.9-2.7,25.8,1.5,42"/>
<path display="none" fill="#F16922" d="M2.6,55.7c-1.8-4.5-4-9.5-1.4-15.7C2.9,45.8,2.6,50.2,2.6,55.7"/>
<path fill="none" stroke="#F16922" stroke-width="0.5" d="M24.9,23.6c-5,1.4-21.4,5-21.6,7.1c-0.5,3.9-0.1,10.1-0.1,10.1"/>
<path fill="#F16922" d="M4.7,55.7c-1.8-4.5-4-9.5-1.4-15.7C5,45.8,4.7,50.2,4.7,55.7"/>
<ellipse transform="matrix(-0.3356 -0.942 0.942 -0.3356 10.384 53.915)" fill="#6D6E70" cx="24.206" cy="23.295" rx="0.4" ry="0.8"/>
</svg>
