<?xml version="1.0" encoding="utf-8"?>
<!-- Generator: Adobe Illustrator 14.0.0, SVG Export Plug-In . SVG Version: 6.00 Build 43363)  -->
<!DOCTYPE svg PUBLIC "-//W3C//DTD SVG 1.1//EN" "http://www.w3.org/Graphics/SVG/1.1/DTD/svg11.dtd">
<svg version="1.1" id="Calque_1" xmlns="http://www.w3.org/2000/svg" xmlns:xlink="http://www.w3.org/1999/xlink" x="0px" y="0px"
	 width="14px" height="14px" viewBox="0 0 14 14" enable-background="new 0 0 14 14" xml:space="preserve">
<g>
	<path id="path12423" fill="#FFFFFF" d="M12.425,1.591c-2.095-2.095-5.522-2.095-7.617,0C3.014,3.385,2.755,6.154,4.031,8.229
		l-3.641,3.528c-0.509,0.494-0.521,1.307-0.035,1.823c0.485,0.517,1.288,0.534,1.797,0.04l3.696-3.594
		c2.069,1.234,4.807,0.963,6.582-0.812C14.526,7.119,14.521,3.687,12.425,1.591L12.425,1.591z M10.889,7.673
		c-1.264,1.264-3.28,1.264-4.544,0c-1.264-1.265-1.264-3.281,0-4.544c1.264-1.264,3.28-1.264,4.544,0
		C12.152,4.392,12.152,6.408,10.889,7.673z"/>
</g>
</svg>
