<?xml version="1.0" encoding="utf-8"?>
<!-- Generator: Adobe Illustrator 14.0.0, SVG Export Plug-In . SVG Version: 6.00 Build 43363)  -->
<!DOCTYPE svg PUBLIC "-//W3C//DTD SVG 1.1//EN" "http://www.w3.org/Graphics/SVG/1.1/DTD/svg11.dtd">
<svg version="1.1" id="Calque_1" xmlns="http://www.w3.org/2000/svg" xmlns:xlink="http://www.w3.org/1999/xlink" x="0px" y="0px"
	 width="14px" height="14px" viewBox="0 0 14 14" enable-background="new 0 0 14 14" xml:space="preserve">
<g>
	<path id="path12423" fill="#FFFFFF" d="M1.575,1.591c-2.096,2.095-2.101,5.528-0.005,7.624c1.775,1.774,4.513,2.046,6.582,0.812
		l3.696,3.594c0.509,0.494,1.312,0.477,1.797-0.04c0.486-0.517,0.474-1.329-0.035-1.823L9.969,8.229
		c1.276-2.074,1.018-4.844-0.776-6.637C7.098-0.504,3.67-0.504,1.575,1.591L1.575,1.591z M3.111,3.128
		c1.264-1.264,3.28-1.264,4.544,0c1.264,1.263,1.264,3.28,0,4.544c-1.264,1.264-3.28,1.264-4.544,0
		C1.848,6.408,1.848,4.392,3.111,3.128z"/>
</g>
</svg>
